<svg aria-hidden="true" style="position: absolute; width: 0; height: 0; overflow: hidden;" version="1.1" xmlns="http://www.w3.org/2000/svg" xmlns:xlink="http://www.w3.org/1999/xlink">
<defs>
<symbol id="icon-clipboard" viewBox="0 0 20 20">
<title>clipboard</title>
<path d="M7.030 2.6c0.215-1.465 1.462-2.577 2.97-2.577s2.755 1.112 2.968 2.561l0.002 0.016 2.030 0.4v1h1c1.105 0 2 0.895 2 2v0 12c0 1.105-0.895 2-2 2v0h-12c-1.105 0-2-0.895-2-2v0-12c0-1.1 0.9-2 2-2h1v-1l2.030-0.4zM5 6h-1v12h12v-12h-1v1h-10v-1zM10 4c0.552 0 1-0.448 1-1s-0.448-1-1-1v0c-0.552 0-1 0.448-1 1s0.448 1 1 1v0z"></path>
</symbol>
<symbol id="icon-code" viewBox="0 0 20 20">
<title>code</title>
<path d="M0.7 9.3l4.8-4.8 1.4 1.42-4.060 4.080 4.070 4.070-1.41 1.42-5.5-5.49 0.7-0.7zM19.3 10.7l0.7-0.7-5.49-5.49-1.4 1.42 4.050 4.070-4.070 4.070 1.41 1.42 4.78-4.78z"></path>
</symbol>
<symbol id="icon-cog" viewBox="0 0 20 20">
<title>cog</title>
<path d="M3.94 6.5l-1.72-2.86 1.42-1.42 2.86 1.72c0.52-0.3 1.1-0.54 1.7-0.7l0.8-3.24h2l0.8 3.24c0.6 0.16 1.18 0.4 1.7 0.7l2.86-1.72 1.42 1.42-1.72 2.86c0.3 0.52 0.54 1.1 0.7 1.7l3.24 0.8v2l-3.24 0.8c-0.16 0.6-0.4 1.18-0.7 1.7l1.72 2.86-1.42 1.42-2.86-1.72c-0.52 0.3-1.1 0.54-1.7 0.7l-0.8 3.24h-2l-0.8-3.24c-0.6-0.16-1.18-0.4-1.7-0.7l-2.86 1.72-1.42-1.42 1.72-2.86c-0.3-0.52-0.54-1.1-0.7-1.7l-3.24-0.8v-2l3.24-0.8c0.16-0.6 0.4-1.18 0.7-1.7zM10 13c1.657 0 3-1.343 3-3s-1.343-3-3-3v0c-1.657 0-3 1.343-3 3s1.343 3 3 3v0z"></path>
</symbol>
<symbol id="icon-format-bold" viewBox="0 0 20 20">
<title>format-bold</title>
<path d="M3 19v-18h8c0.002 0 0.003 0 0.005 0 2.761 0 5 2.239 5 5 0 1.203-0.425 2.306-1.132 3.169l0.007-0.009c1.296 1.016 2.121 2.582 2.121 4.34 0 3.038-2.462 5.5-5.5 5.5-0.001 0-0.001 0-0.002 0h-8.5zM10.5 11h-3.5v5h3.5c1.381 0 2.5-1.119 2.5-2.5s-1.119-2.5-2.5-2.5v0zM7 4v4h3c1.105 0 2-0.895 2-2s-0.895-2-2-2v0h-3z"></path>
</symbol>
<symbol id="icon-format-font-size" viewBox="0 0 20 20">
<title>format-font-size</title>
<path d="M16 9v8h-2v-8h-4v-2h10v2h-4zM8 5v12h-2v-12h-6v-2h15v2h-7z"></path>
</symbol>
<symbol id="icon-format-italic" viewBox="0 0 20 20">
<title>format-italic</title>
<path d="M8 1h9v2h-9v-2zM11 3h3l-6 14h-3l6-14zM2 17h9v2h-9v-2z"></path>
</symbol>
<symbol id="icon-format-underline" viewBox="0 0 20 20">
<title>format-underline</title>
<path d="M16 9c0 3.314-2.686 6-6 6s-6-2.686-6-6v0-8h3v8c0 1.657 1.343 3 3 3s3-1.343 3-3v0-8h3v8zM2 17h16v2h-16v-2z"></path>
</symbol>
<symbol id="icon-indent-decrease" viewBox="0 0 20 20">
<title>indent-decrease</title>
<path d="M1 1h18v2h-18v-2zM7 9h12v2h-12v-2zM1 17h18v2h-18v-2zM7 5h12v2h-12v-2zM7 13h12v2h-12v-2zM5 6v8l-4-4 4-4z"></path>
</symbol>
<symbol id="icon-indent-increase" viewBox="0 0 20 20">
<title>indent-increase</title>
<path d="M1 1h18v2h-18v-2zM7 9h12v2h-12v-2zM1 17h18v2h-18v-2zM7 5h12v2h-12v-2zM7 13h12v2h-12v-2zM1 6l4 4-4 4v-8z"></path>
</symbol>
<symbol id="icon-information-outline" viewBox="0 0 20 20">
<title>information-outline</title>
<path d="M2.93 17.070c-1.884-1.821-3.053-4.37-3.053-7.193 0-5.523 4.477-10 10-10 2.823 0 5.372 1.169 7.19 3.050l0.003 0.003c1.737 1.796 2.807 4.247 2.807 6.947 0 5.523-4.477 10-10 10-2.7 0-5.151-1.070-6.95-2.81l0.003 0.003zM15.66 15.66c1.449-1.449 2.344-3.45 2.344-5.66 0-4.421-3.584-8.004-8.004-8.004-2.21 0-4.211 0.896-5.66 2.344v0c-1.449 1.449-2.344 3.45-2.344 5.66 0 4.421 3.584 8.004 8.004 8.004 2.21 0 4.211-0.896 5.66-2.344v0zM9 11v-2h2v6h-2v-4zM9 5h2v2h-2v-2z"></path>
</symbol>
<symbol id="icon-list" viewBox="0 0 20 20">
<title>list</title>
<path d="M1 4h2v2h-2v-2zM5 4h14v2h-14v-2zM1 9h2v2h-2v-2zM5 9h14v2h-14v-2zM1 14h2v2h-2v-2zM5 14h14v2h-14v-2z"></path>
</symbol>
<symbol id="icon-photo" viewBox="0 0 20 20">
<title>photo</title>
<path d="M0 4c0-1.1 0.9-2 2-2h16c1.105 0 2 0.895 2 2v0 12c0 1.105-0.895 2-2 2v0h-16c-1.105 0-2-0.895-2-2v0-12zM11 13l-3-3-6 6h16l-5-5-2 2zM15 9c1.105 0 2-0.895 2-2s-0.895-2-2-2v0c-1.105 0-2 0.895-2 2s0.895 2 2 2v0z"></path>
</symbol>
<symbol id="icon-trash" viewBox="0 0 20 20">
<title>trash</title>
<path d="M6 2l2-2h4l2 2h4v2h-16v-2h4zM3 6h14l-1 14h-12l-1-14zM8 8v10h1v-10h-1zM11 8v10h1v-10h-1z"></path>
</symbol>
<symbol id="icon-view-hide" viewBox="0 0 20 20">
<title>view-hide</title>
<path d="M12.81 4.36l-1.77 1.78c-0.311-0.087-0.668-0.137-1.037-0.137-2.209 0-4 1.791-4 4 0 0.369 0.050 0.726 0.143 1.065l-0.007-0.028-2.76 2.75c-1.32-1-2.42-2.3-3.18-3.79 1.86-3.591 5.548-6.003 9.799-6.003 0.996 0 1.96 0.132 2.878 0.38l-0.077-0.018zM16.61 6.21c1.33 1 2.43 2.3 3.2 3.79-1.859 3.594-5.549 6.007-9.802 6.007-1.002 0-1.973-0.134-2.895-0.385l0.077 0.018 1.77-1.78c0.311 0.087 0.668 0.137 1.037 0.137 2.209 0 4-1.791 4-4 0-0.369-0.050-0.726-0.143-1.065l0.007 0.028 2.76-2.75zM16.36 2.22l1.42 1.42-14.14 14.14-1.42-1.42 14.14-14.14z"></path>
</symbol>
<symbol id="icon-view-show" viewBox="0 0 20 20">
<title>view-show</title>
<path d="M0.2 10c1.86-3.592 5.548-6.004 9.8-6.004s7.94 2.412 9.771 5.943l0.029 0.061c-1.86 3.592-5.548 6.004-9.8 6.004s-7.94-2.412-9.771-5.943l-0.029-0.061zM10 14c2.209 0 4-1.791 4-4s-1.791-4-4-4v0c-2.209 0-4 1.791-4 4s1.791 4 4 4v0zM10 12c-1.105 0-2-0.895-2-2s0.895-2 2-2v0c1.105 0 2 0.895 2 2s-0.895 2-2 2v0z"></path>
</symbol>
</defs>
</svg>
